# xmcd CD database file generated by LOLA_Freedb v0.9beta0
# 
# Track frame offsets:
#      150
#      14702
#      33008
#      47762
#      64995
#      78634
#      95620
#      113965
#      132091
#      148087
#      166425
#      182972
# 
# Disc length: 2702 seconds
# 
# Revision: 0 
# Processed by: cddbd v1.5.2PL0 Copyright (c) Steve Scherf et al.
# Submitted via: LOLA_Freedb v0.9beta0
# 
DISCID=ac0a8c0c
DTITLE=Katie Melua - pictures
DYEAR=2007
DGENRE=
TTITLE0=Katie Melua - mary pickford
TTITLE1=Katie Melua - it´sall in my head
TTITLE2=Katie Melua - if the lights go out
TTITLE3=Katie Melua - what i miss about you
TTITLE4=Katie Melua - spellbound
TTITLE5=Katie Melua - what it says an the tin
TTITLE6=Katie Melua - scary films
TTITLE7=Katie Melua - perfect circle
TTITLE8=Katie Melua - ghost town
TTITLE9=Katie Melua - if you were a sailboat
TTITLE10=Katie Melua - dirty dice
TTITLE11=Katie Melua - in my secret life
EXTD=
EXTT0=
EXTT1=
EXTT2=
EXTT3=
EXTT4=
EXTT5=
EXTT6=
EXTT7=
EXTT8=
EXTT9=
EXTT10=
EXTT11=
PLAYORDER=
